<?xml version="1.0" encoding="UTF-8" standalone="no"?>
<svg
   xmlns:dc="http://purl.org/dc/elements/1.1/"
   xmlns:cc="http://creativecommons.org/ns#"
   xmlns:rdf="http://www.w3.org/1999/02/22-rdf-syntax-ns#"
   xmlns:svg="http://www.w3.org/2000/svg"
   xmlns="http://www.w3.org/2000/svg"
   xmlns:sodipodi="http://sodipodi.sourceforge.net/DTD/sodipodi-0.dtd"
   xmlns:inkscape="http://www.inkscape.org/namespaces/inkscape"
   width="1245.4347pt"
   height="175.61328pt"
   viewBox="0 0 1245.4346 175.61328"
   version="1.2"
   id="svg189"
   sodipodi:docname="L_LEGIONENGINE_RGB_ORNG_E.svg"
   inkscape:version="1.0.2 (e86c8708, 2021-01-15)">
  <metadata
     id="metadata195">
    <rdf:RDF>
      <cc:Work
         rdf:about="">
        <dc:format>image/svg+xml</dc:format>
        <dc:type
           rdf:resource="http://purl.org/dc/dcmitype/StillImage" />
        <dc:title></dc:title>
      </cc:Work>
    </rdf:RDF>
  </metadata>
  <defs
     id="defs193" />
  <sodipodi:namedview
     pagecolor="#ffffff"
     bordercolor="#666666"
     borderopacity="1"
     objecttolerance="10"
     gridtolerance="10"
     guidetolerance="10"
     inkscape:pageopacity="0"
     inkscape:pageshadow="2"
     inkscape:window-width="1792"
     inkscape:window-height="1092"
     id="namedview191"
     showgrid="false"
     inkscape:snap-text-baseline="false"
     inkscape:zoom="0.69195993"
     inkscape:cx="832.07711"
     inkscape:cy="305.57694"
     inkscape:window-x="0"
     inkscape:window-y="28"
     inkscape:window-maximized="0"
     inkscape:current-layer="surface19332"
     inkscape:lockguides="false"
     showguides="true"
     inkscape:guide-bbox="true">
    <sodipodi:guide
       position="809.59436,435.3237"
       orientation="0,-1"
       id="guide1057" />
  </sodipodi:namedview>
  <g
     id="surface19332"
     transform="translate(-57.507812,-55.941406)">
    <path
       style="fill:#fd4c0e;fill-opacity:1;fill-rule:nonzero;stroke:none"
       d="M 229.30469,191.92969 V 57.285156 h 16.73437 V 176.54297 h 61.35938 v 15.38672 h -78.09375"
       id="path164" />
    <path
       style="fill:#fd4c0e;fill-opacity:1;fill-rule:nonzero;stroke:none"
       d="m 385.375,132.87891 c -0.76953,-8.33203 -3.88281,-14.8086 -9.33203,-19.42578 -5.44922,-4.61719 -12.34375,-6.92579 -20.67578,-6.92579 -7.4375,0 -13.97657,2.4375 -19.6211,7.3086 -5.64062,4.875 -8.84765,11.22265 -9.61718,19.04297 z m -70.88281,-16.34766 c 3.91015,-7.56641 9.39453,-13.43359 16.44531,-17.601562 7.05078,-4.164063 15.13281,-6.25 24.23828,-6.25 8.97266,0 16.92578,1.859374 23.85156,5.578124 6.92188,3.718748 12.3711,9.105468 16.34766,16.156248 3.97266,7.05469 6.08984,15.32422 6.34766,24.8125 0,1.41406 -0.12891,3.65625 -0.38282,6.73438 h -76.17187 v 1.34375 c 0.25781,9.62109 3.20312,17.3125 8.84765,23.08203 5.64063,5.77344 13.01563,8.65625 22.1211,8.65625 7.05078,0 13.04687,-1.76172 17.98437,-5.28906 4.9375,-3.52344 8.23828,-8.42969 9.90625,-14.71485 h 15.96485 c -1.92188,10.00391 -6.73047,18.17578 -14.42578,24.52344 -7.69532,6.34766 -17.1211,9.52344 -28.27735,9.52344 -9.74219,0 -18.26953,-2.08203 -25.58203,-6.25 -7.30859,-4.16797 -12.98437,-10.06641 -17.01953,-17.69922 -4.04297,-7.625 -6.0625,-16.37891 -6.0625,-26.25391 0,-10.0039 1.95312,-18.78515 5.86719,-26.35156"
       id="path166" />
    <path
       style="fill:#fd4c0e;fill-opacity:1;fill-rule:nonzero;stroke:none"
       d="m 474.42187,174.52344 c 4.9375,-3.01172 8.75391,-7.24219 11.44532,-12.69532 2.69531,-5.44921 4.03906,-11.63671 4.03906,-18.5625 0,-7.05078 -1.34375,-13.36718 -4.03906,-18.94531 -2.69141,-5.57812 -6.50782,-9.90625 -11.44532,-12.98437 -4.9375,-3.07813 -10.55078,-4.61719 -16.82812,-4.61719 -9.74609,0 -17.60156,3.36719 -23.5625,10.10156 -5.96484,6.73047 -8.94531,15.41797 -8.94531,26.0625 0,10.64453 2.98047,19.33203 8.94531,26.0625 5.96094,6.73438 13.81641,10.09766 23.5625,10.09766 6.27734,0 11.89062,-1.50391 16.82812,-4.51953 z m 31.06641,-80.691409 v 93.289059 c 0,29.6211 -16.22266,44.4336 -48.66406,44.4336 -12.69531,0 -23.05469,-2.88282 -31.06641,-8.65625 -8.01562,-5.76953 -12.66406,-13.97657 -13.94531,-24.6211 h 16.16016 c 1.27734,6.15625 4.54687,10.89844 9.80859,14.23438 5.25781,3.33594 11.98828,5 20.19531,5 21.16016,0 31.73828,-10.32031 31.73828,-30.96485 v -11.54296 c -7.05468,12.05468 -18.27343,18.08203 -33.66015,18.08203 -9.10547,0 -17.21485,-1.98828 -24.33203,-5.96485 -7.11719,-3.97265 -12.69532,-9.74218 -16.73438,-17.30859 -4.03906,-7.56641 -6.05859,-16.54297 -6.05859,-26.92969 0,-9.875 2.01953,-18.59375 6.05859,-26.16015 4.03906,-7.56641 9.64844,-13.46485 16.82813,-17.695316 7.17968,-4.230469 15.25781,-6.347656 24.23828,-6.347656 7.94922,0 14.74218,1.570312 20.38672,4.710937 5.64453,3.144535 10.0664,7.597655 13.27343,13.371095 l 2.11328,-16.929689 h 13.66016"
       id="path168" />
    <path
       style="fill:#fd4c0e;fill-opacity:1;fill-rule:nonzero;stroke:none"
       d="m 522.08594,93.832031 h 15.76953 v 98.097659 h -15.76953 z m 15.19531,-35.007812 c 1.92187,1.925781 2.88281,4.363281 2.88281,7.3125 0,2.949219 -0.96094,5.382812 -2.88281,7.308593 -1.92578,1.921876 -4.36328,2.882813 -7.30859,2.882813 -2.95313,0 -5.38672,-0.960937 -7.3125,-2.882813 -1.92188,-1.925781 -2.88282,-4.359374 -2.88282,-7.308593 0,-2.949219 0.96094,-5.386719 2.88282,-7.3125 1.92578,-1.921875 4.35937,-2.882813 7.3125,-2.882813 2.94531,0 5.38281,0.960938 7.30859,2.882813"
       id="path170" />
    <path
       style="fill:#fd4c0e;fill-opacity:1;fill-rule:nonzero;stroke:none"
       d="m 615.20312,174.42578 c 4.9336,-3.07812 8.75,-7.37109 11.44532,-12.88672 2.6914,-5.51172 4.03906,-11.73047 4.03906,-18.65625 0,-6.92578 -1.34766,-13.14453 -4.03906,-18.66015 -2.69532,-5.51172 -6.51172,-9.8086 -11.44532,-12.88672 -4.9375,-3.07813 -10.61328,-4.61719 -17.02343,-4.61719 -6.41407,0 -12.08594,1.53906 -17.02344,4.61719 -4.9375,3.07812 -8.75,7.375 -11.44531,12.88672 -2.69141,5.51562 -4.03907,11.73437 -4.03907,18.66015 0,6.92578 1.34766,13.14453 4.03907,18.65625 2.69531,5.51563 6.50781,9.8086 11.44531,12.88672 4.9375,3.07813 10.60937,4.61719 17.02344,4.61719 6.41015,0 12.08593,-1.53906 17.02343,-4.61719 z m -42.3164,12.3125 c -7.375,-4.23047 -13.11328,-10.12891 -17.21485,-17.69531 -4.10546,-7.56641 -6.15625,-16.28516 -6.15625,-26.16016 0,-9.875 2.05079,-18.59375 6.15625,-26.16015 4.10157,-7.56641 9.83985,-13.46485 17.21485,-17.695316 7.37109,-4.230469 15.80078,-6.347656 25.29297,-6.347656 9.48828,0 17.91797,2.117187 25.29297,6.347656 7.375,4.230466 13.11328,10.128906 17.21484,17.695316 4.10547,7.5664 6.15625,16.28515 6.15625,26.16015 0,9.875 -2.05078,18.59375 -6.15625,26.16016 -4.10156,7.5664 -9.83984,13.46484 -17.21484,17.69531 -7.375,4.23047 -15.80469,6.34766 -25.29297,6.34766 -9.49219,0 -17.92188,-2.11719 -25.29297,-6.34766"
       id="path172" />
    <path
       style="fill:#fd4c0e;fill-opacity:1;fill-rule:nonzero;stroke:none"
       d="m 735.14062,103.44922 c 7.2461,7.18359 10.8711,18.46484 10.8711,33.85547 v 54.625 h -15.77344 v -53.66407 c 0,-10.1289 -2.27734,-17.85546 -6.82812,-23.17968 -4.55469,-5.31641 -11.12891,-7.98047 -19.71875,-7.98047 -9.23047,0 -16.47657,3.20703 -21.73438,9.61719 -5.25781,6.41406 -7.88672,15.13281 -7.88672,26.16015 v 49.04688 H 658.30078 V 93.832031 h 13.65234 l 2.11719,13.273439 c 7.4375,-9.617189 18.20703,-14.425782 32.31641,-14.425782 11.92578,0 21.50781,3.589843 28.7539,10.769532"
       id="path174" />
    <path
       style="fill:#fd4c0e;fill-opacity:1;fill-rule:nonzero;stroke:none"
       d="M 114.93359,173.86719 H 57.507812 v -2.5 c 0,-42.78907 22.464844,-62.15235 37.332032,-74.964846 C 108.05078,85.015625 114.68359,79.296875 114.68359,57.285156 h 57.42578 c 0,48.328124 -23.9375,68.964844 -39.78125,82.617184 -12.30078,10.60547 -17.39453,14.9961 -17.39453,31.46485 v 2.5"
       id="path182" />
    <path
       style="fill:#fd4c0e;fill-opacity:1;fill-rule:nonzero;stroke:none"
       d="m 172.14453,231.0625 h -57.1914 v -57.19531 h 57.1914 v 57.19531"
       id="path184" />
    <path
         d="m 762.59508,62.752686 h 82.51 v 14.8 h -66.415 v 41.440004 h 55.315 v 14.8 h -55.315 v 43.66 h 68.82 v 14.8 h -84.915 z"
         style="font-style:normal;font-variant:normal;font-weight:normal;font-stretch:normal;font-size:185px;font-family:Aeonik;-inkscape-font-specification:'Aeonik, Normal';font-variant-ligatures:normal;font-variant-caps:normal;font-variant-numeric:normal;font-variant-east-asian:normal;fill:#fd4c0e;fill-opacity:1;stroke-width:0.75"
         id="path1073" />
   <path
      d="m 909.60359,96.792686 q 17.205,0 27.565,10.360004 10.545,10.36 10.545,32.56 v 52.54 h -15.17 v -51.615 q 0,-14.615 -6.66,-22.2 -6.475,-7.77 -18.87,-7.77 -13.32,0 -20.905,9.25 -7.585,9.25 -7.585,25.16 v 47.175 h -15.17 V 97.902686 h 13.135 l 2.035,12.765004 q 10.73,-13.875004 31.08,-13.875004 z"
      style="font-style:normal;font-variant:normal;font-weight:normal;font-stretch:normal;font-size:185px;font-family:Aeonik;-inkscape-font-specification:'Aeonik, Normal';font-variant-ligatures:normal;font-variant-caps:normal;font-variant-numeric:normal;font-variant-east-asian:normal;fill:#fd4c0e;fill-opacity:1;stroke-width:0.75"
      id="path1075" />
   <path
      d="m 1056.5948,97.902686 v 89.725004 q 0,42.735 -46.805,42.735 -18.31504,0 -29.97004,-8.325 -11.47,-8.325 -13.32,-23.68 h 15.54 q 1.85,8.88 9.435,13.69 7.585,4.81 19.42504,4.81 30.525,0 30.525,-29.785 v -11.1 q -10.175,17.39 -32.375,17.39 -13.13504,0 -23.49504,-5.735 -10.175,-5.735 -16.095,-16.65 -5.735,-10.915 -5.735,-25.9 0,-14.245 5.735,-25.16 5.92,-10.915 16.28,-17.02 10.36,-6.105004 23.31004,-6.105004 11.47,0 19.61,4.625004 8.14,4.44 12.765,12.765 l 2.035,-16.280004 z m -46.065,81.955004 q 9.065,0 16.095,-4.255 7.215,-4.44 11.1,-12.21 3.885,-7.955 3.885,-17.945 0,-10.175 -3.885,-18.13 -3.885,-8.14 -11.1,-12.58 -7.03,-4.44 -16.095,-4.44 -14.06004,0 -22.75504,9.805 -8.51,9.62 -8.51,24.975 0,15.355 8.51,25.16 8.695,9.62 22.75504,9.62 z"
      style="font-style:normal;font-variant:normal;font-weight:normal;font-stretch:normal;font-size:185px;font-family:Aeonik;-inkscape-font-specification:'Aeonik, Normal';font-variant-ligatures:normal;font-variant-caps:normal;font-variant-numeric:normal;font-variant-east-asian:normal;fill:#fd4c0e;fill-opacity:1;stroke-width:0.75"
      id="path1077" />
   <path
      d="m 1084.8448,61.457686 q 4.255,0 7.03,2.775 2.775,2.775 2.775,7.03 0,4.255 -2.775,7.03 -2.775,2.775 -7.03,2.775 -4.255,0 -7.03,-2.775 -2.775,-2.775 -2.775,-7.03 0,-4.255 2.775,-7.03 2.775,-2.775 7.03,-2.775 z m -7.585,36.445 h 15.17 v 94.350004 h -15.17 z"
      style="font-style:normal;font-variant:normal;font-weight:normal;font-stretch:normal;font-size:185px;font-family:Aeonik;-inkscape-font-specification:'Aeonik, Normal';font-variant-ligatures:normal;font-variant-caps:normal;font-variant-numeric:normal;font-variant-east-asian:normal;fill:#fd4c0e;fill-opacity:1;stroke-width:0.75"
      id="path1079" />
   <path
      d="m 1159.2813,96.792686 q 17.205,0 27.565,10.360004 10.545,10.36 10.545,32.56 v 52.54 h -15.17 v -51.615 q 0,-14.615 -6.66,-22.2 -6.475,-7.77 -18.87,-7.77 -13.32,0 -20.905,9.25 -7.585,9.25 -7.585,25.16 v 47.175 h -15.17 V 97.902686 h 13.135 l 2.035,12.765004 q 10.73,-13.875004 31.08,-13.875004 z"
      style="font-style:normal;font-variant:normal;font-weight:normal;font-stretch:normal;font-size:185px;font-family:Aeonik;-inkscape-font-specification:'Aeonik, Normal';font-variant-ligatures:normal;font-variant-caps:normal;font-variant-numeric:normal;font-variant-east-asian:normal;fill:#fd4c0e;fill-opacity:1;stroke-width:0.75"
      id="path1081" />
   <path
      d="m 1213.4025,145.07769 q 0,-14.43 5.55,-25.345 5.735,-10.915 15.91,-16.835 10.175,-6.105004 23.31,-6.105004 12.95,0 22.94,5.365004 9.99,5.365 15.725,15.54 5.735,10.175 6.105,23.865 0,2.035 -0.37,6.475 h -73.26 v 1.295 q 0.37,13.875 8.51,22.2 8.14,8.325 21.275,8.325 10.175,0 17.205,-4.995 7.215,-5.18 9.62,-14.245 h 15.355 q -2.775,14.43 -13.875,23.68 -11.1,9.065 -27.195,9.065 -14.06,0 -24.605,-5.92 -10.545,-6.105 -16.465,-17.02 -5.735,-11.1 -5.735,-25.345 z m 73.815,-9.62 q -1.11,-12.025 -9.065,-18.685 -7.77,-6.66 -19.795,-6.66 -10.73,0 -18.87,7.03 -8.14,7.03 -9.25,18.315 z"
      style="font-style:normal;font-variant:normal;font-weight:normal;font-stretch:normal;font-size:185px;font-family:Aeonik;-inkscape-font-specification:'Aeonik, Normal';font-variant-ligatures:normal;font-variant-caps:normal;font-variant-numeric:normal;font-variant-east-asian:normal;fill:#fd4c0e;fill-opacity:1;stroke-width:0.75"
      id="path1083" />
  </g>
</svg>
