<?xml version="1.0" encoding="utf-8"?>
<!-- Generator: Adobe Illustrator 26.0.2, SVG Export Plug-In . SVG Version: 6.00 Build 0)  -->
<svg version="1.1" xmlns="http://www.w3.org/2000/svg" xmlns:xlink="http://www.w3.org/1999/xlink" x="0px" y="0px"
	 viewBox="0 0 1187.93 288.44" style="enable-background:new 0 0 1187.93 288.44;" xml:space="preserve">
<style type="text/css">
	.st0{display:none;}
	.st1{display:inline;fill:#ABE1FA;}
	.st2{display:inline;}
	.st3{fill:none;stroke:#ABE1FA;stroke-width:0.4995;stroke-miterlimit:10;}
	.st4{fill:none;stroke:#ABE1FA;stroke-width:0.4995;stroke-miterlimit:10;stroke-dasharray:4.9913,4.9913;}
	.st5{fill:none;stroke:#ABE1FA;stroke-width:0.5;stroke-miterlimit:10;}
	.st6{fill:none;stroke:#ABE1FA;stroke-width:0.5;stroke-miterlimit:10;stroke-dasharray:4.9726,4.9726;}
	.st7{fill:none;}
	.st8{fill:#FC4D0F;}
</style>
<g id="Safe_Zone" class="st0">
	<rect x="1130.73" class="st1" width="57.19" height="57.19"/>
	<g class="st2">
		<g>
			<line class="st3" x1="0" y1="57.35" x2="2.5" y2="57.35"/>
			<line class="st4" x1="7.49" y1="57.35" x2="1182.93" y2="57.35"/>
			<line class="st3" x1="1185.43" y1="57.35" x2="1187.93" y2="57.35"/>
		</g>
	</g>
	<g class="st2">
		<g>
			<line class="st3" x1="0" y1="0" x2="2.5" y2="0"/>
			<line class="st4" x1="7.49" y1="0" x2="1182.93" y2="0"/>
			<line class="st3" x1="1185.43" y1="0" x2="1187.93" y2="0"/>
		</g>
	</g>
	<g class="st2">
		<g>
			<line class="st3" x1="0" y1="231.06" x2="2.5" y2="231.06"/>
			<line class="st4" x1="7.49" y1="231.06" x2="1182.93" y2="231.06"/>
			<line class="st3" x1="1185.43" y1="231.06" x2="1187.93" y2="231.06"/>
		</g>
	</g>
	<g class="st2">
		<g>
			<line class="st3" x1="0" y1="288.44" x2="2.5" y2="288.44"/>
			<line class="st4" x1="7.49" y1="288.44" x2="1182.93" y2="288.44"/>
			<line class="st3" x1="1185.43" y1="288.44" x2="1187.93" y2="288.44"/>
		</g>
	</g>
	<g class="st2">
		<g>
			<line class="st5" x1="57.19" y1="0" x2="57.19" y2="2.5"/>
			<line class="st6" x1="57.19" y1="7.47" x2="57.19" y2="283.45"/>
			<line class="st5" x1="57.19" y1="285.94" x2="57.19" y2="288.44"/>
		</g>
	</g>
	<g class="st2">
		<g>
			<line class="st5" x1="1130.73" y1="0" x2="1130.73" y2="2.5"/>
			<line class="st6" x1="1130.73" y1="7.47" x2="1130.73" y2="283.45"/>
			<line class="st5" x1="1130.73" y1="285.94" x2="1130.73" y2="288.44"/>
		</g>
	</g>
	<g class="st2">
		<g>
			<line class="st5" x1="1187.93" y1="0" x2="1187.93" y2="2.5"/>
			<line class="st6" x1="1187.93" y1="7.47" x2="1187.93" y2="283.45"/>
			<line class="st5" x1="1187.93" y1="285.94" x2="1187.93" y2="288.44"/>
		</g>
	</g>
	<g class="st2">
		<g>
			<line class="st5" x1="0" y1="0" x2="0" y2="2.5"/>
			<line class="st6" x1="0" y1="7.47" x2="0" y2="283.45"/>
			<line class="st5" x1="0" y1="285.94" x2="0" y2="288.44"/>
		</g>
	</g>
	<rect x="0" y="231.06" class="st1" width="57.19" height="57.19"/>
	<g class="st2">
		<g>
			<line class="st5" x1="172.27" y1="0" x2="172.27" y2="2.5"/>
			<line class="st6" x1="172.27" y1="7.47" x2="172.27" y2="283.45"/>
			<line class="st5" x1="172.27" y1="285.94" x2="172.27" y2="288.44"/>
		</g>
	</g>
	<g class="st2">
		<g>
			<line class="st5" x1="229.3" y1="0" x2="229.3" y2="2.5"/>
			<line class="st6" x1="229.3" y1="7.47" x2="229.3" y2="283.45"/>
			<line class="st5" x1="229.3" y1="285.94" x2="229.3" y2="288.44"/>
		</g>
	</g>
	<rect x="172.22" class="st1" width="57.19" height="57.19"/>
	<rect x="172.22" y="231.06" class="st1" width="57.19" height="57.19"/>
	<rect x="1130.73" y="231.06" class="st1" width="57.19" height="57.19"/>
	<rect x="0" class="st1" width="57.19" height="57.19"/>
</g>
<g id="RGB">
	<rect x="0" y="0" class="st7" width="1187.93" height="288.44"/>
	<g>
		<path class="st8" d="M229.3,191.93V57.28h16.73v119.26h61.36v15.39H229.3z"/>
		<path class="st8" d="M314.49,116.53c3.91-7.56,9.39-13.43,16.45-17.6c7.05-4.17,15.13-6.25,24.24-6.25
			c8.97,0,16.93,1.86,23.85,5.58c6.92,3.72,12.37,9.11,16.35,16.16c3.97,7.05,6.09,15.33,6.35,24.81c0,1.41-0.13,3.65-0.39,6.73
			h-76.17v1.35c0.26,9.62,3.2,17.31,8.85,23.08c5.64,5.77,13.01,8.66,22.12,8.66c7.05,0,13.05-1.76,17.98-5.29
			c4.94-3.53,8.24-8.43,9.91-14.71h15.97c-1.92,10-6.73,18.18-14.43,24.52c-7.69,6.35-17.12,9.52-28.27,9.52
			c-9.75,0-18.27-2.08-25.58-6.25c-7.31-4.17-12.98-10.07-17.02-17.7c-4.04-7.63-6.06-16.38-6.06-26.26
			C308.63,132.88,310.58,124.09,314.49,116.53z M385.37,132.88c-0.77-8.33-3.88-14.81-9.33-19.43c-5.45-4.62-12.34-6.92-20.68-6.92
			c-7.44,0-13.98,2.44-19.62,7.31c-5.64,4.87-8.85,11.22-9.62,19.04H385.37z"/>
		<path class="st8" d="M505.49,93.83v93.29c0,29.62-16.22,44.43-48.67,44.43c-12.69,0-23.05-2.89-31.06-8.66
			c-8.02-5.77-12.66-13.98-13.95-24.62h16.16c1.28,6.16,4.55,10.9,9.81,14.23c5.26,3.33,11.99,5,20.2,5
			c21.16,0,31.74-10.32,31.74-30.97V175c-7.05,12.05-18.27,18.08-33.66,18.08c-9.11,0-17.22-1.99-24.33-5.96
			c-7.12-3.97-12.7-9.74-16.73-17.31c-4.04-7.56-6.06-16.54-6.06-26.93c0-9.87,2.02-18.59,6.06-26.16
			c4.04-7.56,9.65-13.46,16.83-17.7c7.18-4.23,15.26-6.35,24.24-6.35c7.95,0,14.74,1.57,20.39,4.71c5.64,3.14,10.07,7.6,13.27,13.37
			l2.12-16.93H505.49z M474.42,174.52c4.94-3.01,8.75-7.24,11.44-12.7c2.69-5.45,4.04-11.64,4.04-18.56
			c0-7.05-1.35-13.37-4.04-18.95c-2.69-5.58-6.51-9.91-11.44-12.98c-4.94-3.08-10.55-4.62-16.83-4.62c-9.75,0-17.6,3.37-23.56,10.1
			c-5.96,6.73-8.94,15.42-8.94,26.06c0,10.65,2.98,19.33,8.94,26.06c5.96,6.73,13.82,10.1,23.56,10.1
			C463.87,179.04,469.48,177.53,474.42,174.52z"/>
		<path class="st8" d="M537.28,58.82c1.92,1.92,2.89,4.36,2.89,7.31c0,2.95-0.96,5.39-2.89,7.31c-1.92,1.92-4.36,2.89-7.31,2.89
			c-2.95,0-5.39-0.96-7.31-2.89c-1.92-1.92-2.89-4.36-2.89-7.31c0-2.95,0.96-5.39,2.89-7.31c1.92-1.92,4.36-2.89,7.31-2.89
			C532.92,55.94,535.36,56.9,537.28,58.82z M522.08,93.83h15.77v98.1h-15.77V93.83z"/>
		<path class="st8" d="M572.89,186.73c-7.37-4.23-13.11-10.13-17.22-17.7c-4.11-7.56-6.16-16.28-6.16-26.16
			c0-9.87,2.05-18.59,6.16-26.16c4.1-7.56,9.84-13.46,17.22-17.7c7.37-4.23,15.8-6.35,25.29-6.35c9.49,0,17.92,2.12,25.29,6.35
			c7.37,4.23,13.11,10.13,17.22,17.7c4.1,7.57,6.16,16.29,6.16,26.16c0,9.88-2.05,18.59-6.16,26.16c-4.1,7.57-9.84,13.46-17.22,17.7
			c-7.37,4.23-15.81,6.35-25.29,6.35C588.69,193.08,580.26,190.97,572.89,186.73z M615.2,174.42c4.94-3.08,8.75-7.37,11.45-12.89
			c2.69-5.51,4.04-11.73,4.04-18.66c0-6.92-1.35-13.14-4.04-18.66c-2.69-5.51-6.51-9.81-11.45-12.89
			c-4.94-3.08-10.61-4.62-17.02-4.62c-6.41,0-12.09,1.54-17.02,4.62c-4.94,3.08-8.75,7.37-11.45,12.89
			c-2.69,5.52-4.04,11.73-4.04,18.66c0,6.92,1.35,13.15,4.04,18.66c2.69,5.52,6.51,9.81,11.45,12.89
			c4.93,3.08,10.61,4.62,17.02,4.62C604.59,179.04,610.27,177.5,615.2,174.42z"/>
		<path class="st8" d="M735.14,103.45c7.24,7.18,10.87,18.47,10.87,33.85v54.63h-15.77v-53.67c0-10.13-2.28-17.86-6.83-23.18
			c-4.55-5.32-11.13-7.98-19.72-7.98c-9.23,0-16.48,3.21-21.74,9.62c-5.26,6.41-7.89,15.13-7.89,26.16v49.05H658.3v-98.1h13.66
			l2.12,13.27c7.44-9.62,18.21-14.43,32.31-14.43C718.31,92.68,727.9,96.27,735.14,103.45z"/>
		<path class="st8" d="M762.61,191.93V57.28h16.73v119.26h61.36v15.39H762.61z"/>
		<path class="st8" d="M1019.56,98.64c7.12,3.98,12.69,9.75,16.73,17.31c4.04,7.57,6.06,16.54,6.06,26.93
			c0,9.88-2.02,18.59-6.06,26.16c-4.04,7.57-9.65,13.46-16.83,17.7c-7.18,4.23-15.26,6.35-24.24,6.35c-7.95,0-14.75-1.44-20.39-4.33
			c-5.64-2.88-10.07-6.83-13.27-11.83l-2.12,15H945.8V57.28h15.77v52.32c8.2-11.28,19.43-16.93,33.66-16.93
			C1004.33,92.68,1012.45,94.67,1019.56,98.64z M1017.25,168.94c5.96-6.73,8.94-15.42,8.94-26.06c0-10.64-2.98-19.33-8.94-26.06
			c-5.96-6.73-13.82-10.1-23.56-10.1c-6.28,0-11.9,1.51-16.83,4.52c-4.94,3.01-8.75,7.25-11.45,12.7
			c-2.69,5.45-4.04,11.64-4.04,18.56c0,7.05,1.35,13.37,4.04,18.95c2.69,5.58,6.51,9.91,11.45,12.98
			c4.93,3.08,10.55,4.62,16.83,4.62C1003.44,179.04,1011.29,175.67,1017.25,168.94z"/>
		<path class="st8" d="M1063.49,159.48c0.26,5.9,2.85,10.71,7.79,14.43c4.94,3.72,11.32,5.58,19.15,5.58
			c6.93,0,12.54-1.38,16.84-4.14c4.3-2.76,6.45-6.38,6.45-10.87c0-3.85-1.03-6.8-3.08-8.85c-2.05-2.05-4.71-3.46-7.99-4.23
			s-7.92-1.54-13.95-2.31c-8.47-1.03-15.4-2.37-20.78-4.04c-5.39-1.67-9.75-4.33-13.09-7.99c-3.34-3.66-5-8.69-5-15.11
			c0-5.77,1.64-10.9,4.91-15.4c3.27-4.49,7.73-7.99,13.38-10.49c5.64-2.5,11.99-3.75,19.05-3.75c11.55,0,20.94,2.69,28.19,8.08
			c7.25,5.39,11.26,13.09,12.03,23.09h-15.78c-0.64-5.13-3.14-9.36-7.5-12.7c-4.36-3.33-9.81-5-16.36-5
			c-6.67,0-12.06,1.38-16.16,4.14c-4.11,2.76-6.16,6.38-6.16,10.87c0,3.34,0.96,5.9,2.89,7.7c1.92,1.8,4.39,3.02,7.41,3.66
			c3.01,0.64,7.6,1.35,13.76,2.12c8.59,1.03,15.68,2.44,21.27,4.23c5.58,1.8,10.07,4.68,13.47,8.66c3.4,3.98,5.1,9.37,5.1,16.16
			c0,5.9-1.73,11.1-5.19,15.59c-3.46,4.49-8.15,7.96-14.05,10.39c-5.9,2.44-12.45,3.66-19.63,3.66c-12.83,0-23.13-2.95-30.89-8.85
			c-7.76-5.9-11.71-14.11-11.83-24.63H1063.49z"/>
		<path class="st8" d="M114.93,173.86H57.51v-2.5c0-42.79,22.47-62.15,37.33-74.96c13.21-11.39,19.85-17.11,19.85-39.12h57.43
			c0,48.33-23.94,68.96-39.78,82.62c-12.3,10.6-17.4,14.99-17.4,31.46V173.86z"/>
		<rect x="114.95" y="173.86" class="st8" width="57.19" height="57.19"/>
		<g>
			<path class="st8" d="M918.9,101.71c6.87,6.1,10.3,14.86,10.3,26.29v63.93h-13.67l-1.35-15.41c-7.7,11.04-18.68,16.56-32.93,16.56
				c-10.91,0-19.68-2.57-26.29-7.7c-6.61-5.13-9.92-12.13-9.92-20.99c0-9.88,3.37-17.46,10.11-22.72c6.74-5.26,16.53-7.9,29.37-7.9
				h28.89v-6.74c0-6.42-2.15-11.42-6.45-15.02c-4.3-3.59-10.3-5.39-18-5.39c-6.81,0-12.42,1.51-16.85,4.53
				c-4.43,3.02-7.16,7.03-8.18,12.04h-15.79c1.16-9.63,5.42-17.14,12.81-22.53c7.38-5.39,16.98-8.09,28.79-8.09
				C902.3,92.56,912.03,95.61,918.9,101.71z M913.41,147.06h-30.43c-14.64,0-21.95,5.46-21.95,16.37c0,4.88,1.93,8.79,5.78,11.75
				c3.85,2.95,9.05,4.43,15.6,4.43c9.63,0,17.2-2.53,22.72-7.61c5.52-5.07,8.28-11.78,8.28-20.12V147.06z"/>
		</g>
	</g>
</g>
</svg>
