<?xml version="1.0" encoding="utf-8"?>
<!-- Generator: Adobe Illustrator 26.0.2, SVG Export Plug-In . SVG Version: 6.00 Build 0)  -->
<svg version="1.1" id="Layer_1" xmlns="http://www.w3.org/2000/svg" xmlns:xlink="http://www.w3.org/1999/xlink" x="0px" y="0px"
	 viewBox="0 0 1187.9 288.4" style="enable-background:new 0 0 1187.9 288.4;" xml:space="preserve">
<style type="text/css">
	.st0{display:none;}
	.st1{display:inline;fill:#B8E2F8;}
	.st2{display:inline;}
	.st3{fill:none;stroke:#B8E2F8;stroke-width:0.4995;stroke-miterlimit:10;}
	.st4{fill:none;stroke:#B8E2F8;stroke-width:0.4995;stroke-miterlimit:10;stroke-dasharray:4.9913,4.9913;}
	.st5{fill:none;stroke:#B8E2F8;stroke-width:0.5;stroke-miterlimit:10;}
	.st6{fill:none;stroke:#B8E2F8;stroke-width:0.5;stroke-miterlimit:10;stroke-dasharray:4.9726,4.9726;}
</style>
<g id="Safe_Zone" class="st0">
	<rect x="1130.7" class="st1" width="57.2" height="57.2"/>
	<g class="st2">
		<g>
			<line class="st3" x1="0" y1="57.3" x2="2.5" y2="57.3"/>
			<line class="st4" x1="7.5" y1="57.3" x2="1182.9" y2="57.3"/>
			<line class="st3" x1="1185.4" y1="57.3" x2="1187.9" y2="57.3"/>
		</g>
	</g>
	<g class="st2">
		<g>
			<line class="st3" x1="0" y1="0" x2="2.5" y2="0"/>
			<line class="st4" x1="7.5" y1="0" x2="1182.9" y2="0"/>
			<line class="st3" x1="1185.4" y1="0" x2="1187.9" y2="0"/>
		</g>
	</g>
	<g class="st2">
		<g>
			<line class="st3" x1="0" y1="231.1" x2="2.5" y2="231.1"/>
			<line class="st4" x1="7.5" y1="231.1" x2="1182.9" y2="231.1"/>
			<line class="st3" x1="1185.4" y1="231.1" x2="1187.9" y2="231.1"/>
		</g>
	</g>
	<g class="st2">
		<g>
			<line class="st3" x1="0" y1="288.4" x2="2.5" y2="288.4"/>
			<line class="st4" x1="7.5" y1="288.4" x2="1182.9" y2="288.4"/>
			<line class="st3" x1="1185.4" y1="288.4" x2="1187.9" y2="288.4"/>
		</g>
	</g>
	<g class="st2">
		<g>
			<line class="st5" x1="57.2" y1="0" x2="57.2" y2="2.5"/>
			<line class="st6" x1="57.2" y1="7.5" x2="57.2" y2="283.5"/>
			<line class="st5" x1="57.2" y1="285.9" x2="57.2" y2="288.4"/>
		</g>
	</g>
	<g class="st2">
		<g>
			<line class="st5" x1="1130.7" y1="0" x2="1130.7" y2="2.5"/>
			<line class="st6" x1="1130.7" y1="7.5" x2="1130.7" y2="283.5"/>
			<line class="st5" x1="1130.7" y1="285.9" x2="1130.7" y2="288.4"/>
		</g>
	</g>
	<g class="st2">
		<g>
			<line class="st5" x1="1187.9" y1="0" x2="1187.9" y2="2.5"/>
			<line class="st6" x1="1187.9" y1="7.5" x2="1187.9" y2="283.5"/>
			<line class="st5" x1="1187.9" y1="285.9" x2="1187.9" y2="288.4"/>
		</g>
	</g>
	<g class="st2">
		<g>
			<line class="st5" x1="0" y1="0" x2="0" y2="2.5"/>
			<line class="st6" x1="0" y1="7.5" x2="0" y2="283.5"/>
			<line class="st5" x1="0" y1="285.9" x2="0" y2="288.4"/>
		</g>
	</g>
	<rect y="231.1" class="st1" width="57.2" height="57.2"/>
	<g class="st2">
		<g>
			<line class="st5" x1="172.3" y1="0" x2="172.3" y2="2.5"/>
			<line class="st6" x1="172.3" y1="7.5" x2="172.3" y2="283.5"/>
			<line class="st5" x1="172.3" y1="285.9" x2="172.3" y2="288.4"/>
		</g>
	</g>
	<g class="st2">
		<g>
			<line class="st5" x1="229.3" y1="0" x2="229.3" y2="2.5"/>
			<line class="st6" x1="229.3" y1="7.5" x2="229.3" y2="283.5"/>
			<line class="st5" x1="229.3" y1="285.9" x2="229.3" y2="288.4"/>
		</g>
	</g>
	<rect x="172.2" class="st1" width="57.2" height="57.2"/>
	<rect x="172.2" y="231.1" class="st1" width="57.2" height="57.2"/>
	<rect x="1130.7" y="231.1" class="st1" width="57.2" height="57.2"/>
	<rect class="st1" width="57.2" height="57.2"/>
</g>
<g>
	<path d="M229.9,191.9V57.3h16.7v119.3H308v15.4H229.9z"/>
	<path d="M315.1,116.5c3.9-7.6,9.4-13.4,16.4-17.6c7.1-4.2,15.1-6.3,24.2-6.3c9,0,16.9,1.9,23.9,5.6c6.9,3.7,12.4,9.1,16.4,16.2
		c4,7.1,6.1,15.3,6.3,24.8c0,1.4-0.1,3.7-0.4,6.7h-76.2v1.3c0.3,9.6,3.2,17.3,8.8,23.1c5.6,5.8,13,8.7,22.1,8.7c7.1,0,13-1.8,18-5.3
		c4.9-3.5,8.2-8.4,9.9-14.7h16c-1.9,10-6.7,18.2-14.4,24.5c-7.7,6.3-17.1,9.5-28.3,9.5c-9.7,0-18.3-2.1-25.6-6.3
		c-7.3-4.2-13-10.1-17-17.7c-4-7.6-6.1-16.4-6.1-26.3C309.2,132.9,311.1,124.1,315.1,116.5z M385.9,132.9
		c-0.8-8.3-3.9-14.8-9.3-19.4c-5.5-4.6-12.3-6.9-20.7-6.9c-7.4,0-14,2.4-19.6,7.3c-5.6,4.9-8.8,11.2-9.6,19H385.9z"/>
	<path d="M506,93.8v93.3c0,29.6-16.2,44.4-48.7,44.4c-12.7,0-23.1-2.9-31.1-8.7c-8-5.8-12.7-14-13.9-24.6h16.2
		c1.3,6.2,4.5,10.9,9.8,14.2c5.3,3.3,12,5,20.2,5c21.2,0,31.7-10.3,31.7-31V175c-7.1,12.1-18.3,18.1-33.7,18.1c-9.1,0-17.2-2-24.3-6
		c-7.1-4-12.7-9.7-16.7-17.3c-4-7.6-6.1-16.5-6.1-26.9c0-9.9,2-18.6,6.1-26.2c4-7.6,9.6-13.5,16.8-17.7c7.2-4.2,15.3-6.3,24.2-6.3
		c7.9,0,14.7,1.6,20.4,4.7c5.6,3.1,10.1,7.6,13.3,13.4l2.1-16.9H506z M475,174.5c4.9-3,8.8-7.2,11.4-12.7c2.7-5.4,4-11.6,4-18.6
		c0-7.1-1.3-13.4-4-18.9c-2.7-5.6-6.5-9.9-11.4-13c-4.9-3.1-10.5-4.6-16.8-4.6c-9.7,0-17.6,3.4-23.6,10.1c-6,6.7-8.9,15.4-8.9,26.1
		c0,10.6,3,19.3,8.9,26.1c6,6.7,13.8,10.1,23.6,10.1C464.4,179,470,177.5,475,174.5z"/>
	<path d="M537.8,58.8c1.9,1.9,2.9,4.4,2.9,7.3c0,3-1,5.4-2.9,7.3c-1.9,1.9-4.4,2.9-7.3,2.9c-3,0-5.4-1-7.3-2.9
		c-1.9-1.9-2.9-4.4-2.9-7.3c0-2.9,1-5.4,2.9-7.3c1.9-1.9,4.4-2.9,7.3-2.9C533.5,55.9,535.9,56.9,537.8,58.8z M522.6,93.8h15.8v98.1
		h-15.8V93.8z"/>
	<path d="M573.4,186.7c-7.4-4.2-13.1-10.1-17.2-17.7c-4.1-7.6-6.2-16.3-6.2-26.2c0-9.9,2.1-18.6,6.2-26.2
		c4.1-7.6,9.8-13.5,17.2-17.7c7.4-4.2,15.8-6.3,25.3-6.3c9.5,0,17.9,2.1,25.3,6.3c7.4,4.2,13.1,10.1,17.2,17.7
		c4.1,7.6,6.2,16.3,6.2,26.2c0,9.9-2.1,18.6-6.2,26.2c-4.1,7.6-9.8,13.5-17.2,17.7c-7.4,4.2-15.8,6.3-25.3,6.3
		C589.2,193.1,580.8,191,573.4,186.7z M615.8,174.4c4.9-3.1,8.8-7.4,11.4-12.9c2.7-5.5,4-11.7,4-18.7c0-6.9-1.3-13.1-4-18.7
		c-2.7-5.5-6.5-9.8-11.4-12.9c-4.9-3.1-10.6-4.6-17-4.6c-6.4,0-12.1,1.5-17,4.6c-4.9,3.1-8.8,7.4-11.4,12.9c-2.7,5.5-4,11.7-4,18.7
		c0,6.9,1.3,13.1,4,18.7c2.7,5.5,6.5,9.8,11.4,12.9c4.9,3.1,10.6,4.6,17,4.6C605.1,179,610.8,177.5,615.8,174.4z"/>
	<path d="M735.7,103.4c7.2,7.2,10.9,18.5,10.9,33.9v54.6h-15.8v-53.7c0-10.1-2.3-17.9-6.8-23.2c-4.6-5.3-11.1-8-19.7-8
		c-9.2,0-16.5,3.2-21.7,9.6c-5.3,6.4-7.9,15.1-7.9,26.2v49h-15.8V93.8h13.7l2.1,13.3c7.4-9.6,18.2-14.4,32.3-14.4
		C718.9,92.7,728.5,96.3,735.7,103.4z"/>
	<path d="M763.2,191.9V57.3h16.7v119.3h61.4v15.4H763.2z"/>
	<path d="M1020.1,98.6c7.1,4,12.7,9.7,16.7,17.3c4,7.6,6.1,16.5,6.1,26.9c0,9.9-2,18.6-6.1,26.2c-4,7.6-9.7,13.5-16.8,17.7
		c-7.2,4.2-15.3,6.3-24.2,6.3c-8,0-14.7-1.4-20.4-4.3c-5.6-2.9-10.1-6.8-13.3-11.8l-2.1,15h-13.7V57.3h15.8v52.3
		c8.2-11.3,19.4-16.9,33.7-16.9C1004.9,92.7,1013,94.7,1020.1,98.6z M1017.8,168.9c6-6.7,8.9-15.4,8.9-26.1c0-10.6-3-19.3-8.9-26.1
		c-6-6.7-13.8-10.1-23.6-10.1c-6.3,0-11.9,1.5-16.8,4.5c-4.9,3-8.8,7.2-11.4,12.7c-2.7,5.5-4,11.6-4,18.6c0,7.1,1.3,13.4,4,18.9
		c2.7,5.6,6.5,9.9,11.4,13c4.9,3.1,10.5,4.6,16.8,4.6C1004,179,1011.9,175.7,1017.8,168.9z"/>
	<path d="M1064.1,159.5c0.3,5.9,2.9,10.7,7.8,14.4c4.9,3.7,11.3,5.6,19.1,5.6c6.9,0,12.5-1.4,16.8-4.1c4.3-2.8,6.4-6.4,6.4-10.9
		c0-3.8-1-6.8-3.1-8.9c-2.1-2.1-4.7-3.5-8-4.2s-7.9-1.5-14-2.3c-8.5-1-15.4-2.4-20.8-4c-5.4-1.7-9.8-4.3-13.1-8
		c-3.3-3.7-5-8.7-5-15.1c0-5.8,1.6-10.9,4.9-15.4c3.3-4.5,7.7-8,13.4-10.5c5.6-2.5,12-3.8,19.1-3.8c11.5,0,20.9,2.7,28.2,8.1
		c7.2,5.4,11.3,13.1,12,23.1h-15.8c-0.6-5.1-3.1-9.4-7.5-12.7c-4.4-3.3-9.8-5-16.4-5c-6.7,0-12.1,1.4-16.2,4.1
		c-4.1,2.8-6.2,6.4-6.2,10.9c0,3.3,1,5.9,2.9,7.7c1.9,1.8,4.4,3,7.4,3.7c3,0.6,7.6,1.3,13.8,2.1c8.6,1,15.7,2.4,21.3,4.2
		c5.6,1.8,10.1,4.7,13.5,8.7c3.4,4,5.1,9.4,5.1,16.2c0,5.9-1.7,11.1-5.2,15.6c-3.5,4.5-8.1,8-14,10.4c-5.9,2.4-12.4,3.7-19.6,3.7
		c-12.8,0-23.1-2.9-30.9-8.9c-7.8-5.9-11.7-14.1-11.8-24.6H1064.1z"/>
	<path d="M115.5,173.9H58.1v-2.5c0-42.8,22.5-62.1,37.3-75c13.2-11.4,19.8-17.1,19.8-39.1h57.4c0,48.3-23.9,69-39.8,82.6
		c-12.3,10.6-17.4,15-17.4,31.5V173.9z"/>
	<rect x="115.5" y="173.9" width="57.2" height="57.2"/>
	<g>
		<path d="M919.5,101.7c6.9,6.1,10.3,14.9,10.3,26.3v63.9h-13.7l-1.3-15.4c-7.7,11-18.7,16.6-32.9,16.6c-10.9,0-19.7-2.6-26.3-7.7
			c-6.6-5.1-9.9-12.1-9.9-21c0-9.9,3.4-17.5,10.1-22.7c6.7-5.3,16.5-7.9,29.4-7.9H914V127c0-6.4-2.2-11.4-6.5-15
			c-4.3-3.6-10.3-5.4-18-5.4c-6.8,0-12.4,1.5-16.8,4.5c-4.4,3-7.2,7-8.2,12h-15.8c1.2-9.6,5.4-17.1,12.8-22.5
			c7.4-5.4,17-8.1,28.8-8.1C902.9,92.6,912.6,95.6,919.5,101.7z M914,147.1h-30.4c-14.6,0-22,5.5-22,16.4c0,4.9,1.9,8.8,5.8,11.7
			c3.9,3,9.1,4.4,15.6,4.4c9.6,0,17.2-2.5,22.7-7.6c5.5-5.1,8.3-11.8,8.3-20.1V147.1z"/>
	</g>
</g>
</svg>
